<svg xmlns="http://www.w3.org/2000/svg" viewBox="0 0 720 820" role="img" aria-labelledby="title desc">
  <title id="title">Sketch portrait of Dr. Yograj Sharma</title>
  <desc id="desc">A warm line-art pediatrician portrait with distinctive moles on the nose and cheek.</desc>
  <defs>
    <linearGradient id="paper" x1="0" x2="1" y1="0" y2="1">
      <stop offset="0" stop-color="#fffdf8"/>
      <stop offset="1" stop-color="#e7f7f4"/>
    </linearGradient>
    <linearGradient id="coat" x1="0" x2="0" y1="0" y2="1">
      <stop offset="0" stop-color="#ffffff"/>
      <stop offset="1" stop-color="#edf6fb"/>
    </linearGradient>
  </defs>
  <rect width="720" height="820" fill="url(#paper)"/>
  <path d="M86 744c74-152 148-226 278-226 136 0 220 78 280 226" fill="url(#coat)" stroke="#243447" stroke-width="8" stroke-linecap="round"/>
  <path d="M244 545l74 105 44-86 48 86 70-106" fill="none" stroke="#243447" stroke-width="7" stroke-linecap="round" stroke-linejoin="round"/>
  <path d="M242 558c-30 46-44 104-45 174M482 558c31 45 46 104 47 174" fill="none" stroke="#9fb9c7" stroke-width="5" stroke-linecap="round"/>
  <path d="M238 246c-5-80 42-151 126-159 90-9 155 51 157 139 35 14 50 44 42 80-7 33-30 55-56 57-19 81-71 145-142 145-72 0-126-65-145-147-28-3-49-27-55-61-7-39 16-63 73-54z" fill="#f3c7a7" stroke="#243447" stroke-width="8" stroke-linejoin="round"/>
  <path d="M236 239c22-93 91-133 179-111 65 16 101 57 111 121-26-19-56-29-91-31-52-3-107 12-157 43-16 10-30 10-42-22z" fill="#17222c" stroke="#243447" stroke-width="7" stroke-linejoin="round"/>
  <path d="M279 313c24-18 53-18 77-1M399 313c25-18 54-18 78 0" fill="none" stroke="#243447" stroke-width="7" stroke-linecap="round"/>
  <ellipse cx="319" cy="346" rx="12" ry="14" fill="#243447"/>
  <ellipse cx="436" cy="346" rx="12" ry="14" fill="#243447"/>
  <path d="M372 354c-10 34-18 60-4 70 9 7 24 5 35-3" fill="none" stroke="#8a5f4d" stroke-width="6" stroke-linecap="round"/>
  <circle cx="390" cy="390" r="5.5" fill="#17222c"/>
  <circle cx="450" cy="404" r="5.5" fill="#17222c"/>
  <path d="M315 447c34 29 83 29 119 0" fill="none" stroke="#243447" stroke-width="8" stroke-linecap="round"/>
  <path d="M334 457c28 9 56 8 84-1" fill="none" stroke="#ffffff" stroke-width="5" stroke-linecap="round"/>
  <path d="M249 282c-1 39 4 78 16 115M502 283c-2 39-9 78-23 115" fill="none" stroke="#8a5f4d" stroke-width="5" stroke-linecap="round" opacity=".75"/>
  <path d="M262 596c45 76 81 115 108 116 29 0 67-39 114-116" fill="none" stroke="#243447" stroke-width="7" stroke-linecap="round"/>
  <path d="M258 584c-50 24-78 63-78 111 0 23 18 41 41 41 36 0 52-32 52-64" fill="none" stroke="#17222c" stroke-width="10" stroke-linecap="round"/>
  <path d="M482 584c50 24 78 63 78 111 0 23-18 41-41 41-36 0-52-32-52-64" fill="none" stroke="#17222c" stroke-width="10" stroke-linecap="round"/>
  <circle cx="221" cy="736" r="18" fill="#e8fbff" stroke="#17222c" stroke-width="8"/>
  <circle cx="519" cy="736" r="18" fill="#e8fbff" stroke="#17222c" stroke-width="8"/>
  <path d="M166 711c-27 18-49 39-66 63M574 711c27 18 49 39 66 63" fill="none" stroke="#74c6c1" stroke-width="6" stroke-linecap="round"/>
  <path d="M256 641c26 11 49 17 69 19M488 641c-26 11-49 17-69 19" fill="none" stroke="#bed3dc" stroke-width="4" stroke-linecap="round"/>
  <path d="M151 185c38-76 104-122 197-137 122-19 209 39 241 143" fill="none" stroke="#74c6c1" stroke-width="8" stroke-linecap="round" opacity=".35"/>
</svg>
